# xmcd
#
# Track frame offsets: 
#        150
#        16812
#        31476
#        50383
#        67261
#        83447
#        102836
#        119524
#        131124
#        144068
#        170805
#        185568
#        203718
#
# Disc length: 3003 seconds
#
# Revision: 0
# Processed by: cddbd v1.5.2PL0 Copyright (c) Steve Scherf et al.
# Submitted via: ExactAudioCopy v0.95b4
#
DISCID=b30bb90d
DTITLE=Scarlett - Live
DYEAR=2006
DGENRE=Country
TTITLE0=Redneck Woman
TTITLE1=Am I The Only You
TTITLE2=Long Time Gone
TTITLE3=Wide Open Space
TTITLE4=Stand By Your Man
TTITLE5=Nothing At All
TTITLE6=Wild Angels
TTITLE7=Some Days You Gotta Dance
TTITLE8=Blue
TTITLE9=Travelling Soldier
TTITLE10=Mama Me´s  Crazy
TTITLE11=Sin Wagon
TTITLE12=Stand Back Up
EXTD=
EXTT0=
EXTT1=
EXTT2=
EXTT3=
EXTT4=
EXTT5=
EXTT6=
EXTT7=
EXTT8=
EXTT9=
EXTT10=
EXTT11=
EXTT12=
PLAYORDER=
